<svg width="547" height="547" viewBox="0 0 547 547" fill="none" xmlns="http://www.w3.org/2000/svg">
<line x1="198.964" y1="100.356" x2="198.974" y2="234.692" stroke="#00FF94" stroke-width="20"/>
<line x1="277.173" y1="100.43" x2="277.183" y2="234.765" stroke="#00FF94" stroke-width="20"/>
<line x1="353.533" y1="100.424" x2="353.543" y2="234.759" stroke="#00FF94" stroke-width="20"/>
<line x1="199.01" y1="289.998" x2="199.02" y2="424.334" stroke="#00FF94" stroke-width="20"/>
<line x1="277.188" y1="289.992" x2="277.199" y2="424.328" stroke="#00FF94" stroke-width="20"/>
<line x1="353.548" y1="289.986" x2="353.559" y2="424.322" stroke="#00FF94" stroke-width="20"/>
<path d="M279.202 295.695L196.059 229.447M355.5 295.695L275.887 229.128" stroke="#00FF94" stroke-width="20"/>
<path d="M195.5 298.5L244.352 272.821" stroke="#00FF94" stroke-width="20"/>
<path d="M294.93 253.841L358.784 227.148" stroke="#00FF94" stroke-width="20"/>
<line y1="-10" x2="97.4711" y2="-10" transform="matrix(0.802119 0.597165 -0.741328 0.671143 189.02 424.335)" stroke="#00FF94" stroke-width="20"/>
<path d="M268.443 44.05L356.5 108" stroke="#00FF94" stroke-width="20"/>
<path d="M195.591 108.16L277 49M268.088 482.799L357 417" stroke="#00FF94" stroke-width="20"/>
<circle cx="273.496" cy="273.508" r="272.5" fill="#769593" fill-opacity="0.15"/>
</svg>
