<svg width="526" height="624" viewBox="0 0 526 624" fill="none" xmlns="http://www.w3.org/2000/svg">
<line x1="204.319" y1="209.266" x2="204.326" y2="301.502" stroke="#00FF94" stroke-width="20"/>
<line x1="264.834" y1="209.316" x2="264.841" y2="301.552" stroke="#00FF94" stroke-width="20"/>
<line x1="323.918" y1="209.311" x2="323.925" y2="301.547" stroke="#00FF94" stroke-width="20"/>
<line x1="204.353" y1="339.476" x2="204.361" y2="431.712" stroke="#00FF94" stroke-width="20"/>
<line x1="264.844" y1="339.471" x2="264.852" y2="431.707" stroke="#00FF94" stroke-width="20"/>
<line x1="323.928" y1="339.466" x2="323.936" y2="431.702" stroke="#00FF94" stroke-width="20"/>
<path d="M264.141 343.387L199.808 297.901M323.177 343.386L261.576 297.682" stroke="#00FF94" stroke-width="20"/>
<path d="M199.375 345.313L237.175 327.682" stroke="#00FF94" stroke-width="20"/>
<path d="M276.311 314.65L325.718 296.322" stroke="#00FF94" stroke-width="20"/>
<line y1="-10" x2="72.5034" y2="-10" transform="matrix(0.834369 0.551206 -0.77959 0.62629 194.361 431.713)" stroke="#00FF94" stroke-width="20"/>
<path d="M255.817 170.606L323.952 214.513" stroke="#00FF94" stroke-width="20"/>
<path d="M199.447 214.624L262.438 174.004M255.539 471.854L324.336 426.675" stroke="#00FF94" stroke-width="20"/>
<path d="M18.1891 150.808L263.635 19.8839L508.114 150.785L508.111 463.165L263.628 603.377L18.1859 463.15L18.1891 150.808Z" stroke="#00FF94" stroke-width="35"/>
</svg>
